<svg version="1.1" id="Layer_1" xmlns="http://www.w3.org/2000/svg" xmlns:xlink="http://www.w3.org/1999/xlink" x="0px" y="0px"
	 width="100%" viewBox="0 0 3070 3070" enable-background="new 0 0 3070 3070" xml:space="preserve">
<path fill="#BB77DD" opacity="1.000000" stroke="none" 
	d="
M2024.000000,3072.000000 
	C1349.333496,3072.000000 675.666931,3072.000000 2.000271,3072.000000 
	C2.000181,2048.666992 2.000181,1025.333984 2.000090,2.000683 
	C1025.332886,2.000455 2048.665771,2.000455 3071.999023,2.000228 
	C3071.999268,1025.332642 3071.999268,2048.665283 3071.999512,3071.999023 
	C2723.000000,3072.000000 2374.000000,3072.000000 2024.000000,3072.000000 
M881.967468,1111.000000 
	C881.967468,1487.328735 881.967041,1863.657593 881.973206,2239.986328 
	C881.973267,2244.985352 881.760803,2250.008545 882.161194,2254.979004 
	C883.235962,2268.322021 893.046997,2277.606445 906.410034,2278.232422 
	C908.406189,2278.325928 910.409302,2278.281494 912.409241,2278.281738 
	C991.742371,2278.283691 1071.075562,2278.283447 1150.408691,2278.281494 
	C1152.408569,2278.281494 1154.412476,2278.333496 1156.407715,2278.230225 
	C1169.871704,2277.533936 1179.496704,2268.073975 1180.200928,2254.707031 
	C1180.428589,2250.384766 1180.285645,2246.042480 1180.285645,2241.709229 
	C1180.288086,1904.376709 1180.285034,1567.044189 1180.290894,1229.711670 
	C1180.291748,1176.711914 1180.297485,1123.712036 1180.379883,1070.712280 
	C1180.400269,1057.635376 1182.549927,1055.605469 1195.437378,1055.461182 
	C1196.103882,1055.453735 1196.770752,1055.457520 1197.437378,1055.457520 
	C1319.103760,1055.456665 1440.770020,1055.450684 1562.436401,1055.480957 
	C1565.987427,1055.481934 1569.538330,1055.865723 1574.311768,1056.141724 
	C1574.311768,1061.893066 1574.311768,1066.804810 1574.311768,1071.716553 
	C1574.311768,1461.382324 1574.311646,1851.048096 1574.315796,2240.713867 
	C1574.315918,2245.046875 1574.151489,2249.394775 1574.444824,2253.709961 
	C1575.554077,2270.031738 1588.774658,2279.439209 1600.659424,2278.314941 
	C1603.962524,2278.002441 1607.321411,2278.285156 1610.654785,2278.285156 
	C1683.654541,2278.286621 1756.654419,2278.287598 1829.654175,2278.284912 
	C1835.987427,2278.284668 1842.326660,2278.432373 1848.652710,2278.211670 
	C1861.045044,2277.779785 1870.117676,2270.260986 1872.481812,2258.042725 
	C1873.420410,2253.191406 1873.420898,2248.109619 1873.421997,2243.132812 
	C1873.465454,2055.466553 1873.458496,1867.800415 1873.459595,1680.134155 
	C1873.459717,1658.240601 1873.463013,1658.238647 1895.868164,1658.238525 
	C2039.867798,1658.237915 2183.867432,1658.239380 2327.867188,1658.233765 
	C2332.199951,1658.233643 2336.548340,1658.389160 2340.862061,1658.085083 
	C2351.657715,1657.324097 2358.745117,1651.255005 2362.572998,1641.519897 
	C2363.865967,1638.232422 2364.056885,1634.351807 2364.061279,1630.741455 
	C2364.143066,1563.741821 2364.120850,1496.741943 2364.115723,1429.742188 
	C2364.115723,1428.409302 2364.126953,1427.070923 2364.018799,1425.744385 
	C2362.985596,1413.069092 2353.541260,1403.401733 2340.842773,1402.265259 
	C2336.871582,1401.909790 2332.848877,1402.095825 2328.849609,1402.095581 
	C2183.183350,1402.088989 2037.516968,1402.092773 1891.850586,1402.085327 
	C1874.111084,1402.084351 1873.463989,1401.419312 1873.462891,1383.337402 
	C1873.456055,1279.337646 1873.458496,1175.338013 1873.465454,1071.338257 
	C1873.465698,1068.339355 1873.335571,1065.317627 1873.646729,1062.346313 
	C1874.291382,1056.189819 1876.242065,1054.164795 1882.424805,1053.568970 
	C1886.391724,1053.186523 1890.415894,1053.349854 1894.414429,1053.349731 
	C2117.413818,1053.342041 2340.413330,1053.347656 2563.412842,1053.312378 
	C2568.731201,1053.311523 2574.116211,1053.306274 2579.354248,1052.526367 
	C2591.018799,1050.789551 2598.601318,1043.393921 2600.763672,1031.854858 
	C2601.492676,1027.964844 2601.525635,1023.905762 2601.528320,1019.923767 
	C2601.572021,956.590576 2601.560059,893.257446 2601.556396,829.924255 
	C2601.556396,827.591125 2601.623535,825.251038 2601.473877,822.926086 
	C2600.471191,807.324036 2590.942383,797.673523 2575.457031,796.583313 
	C2573.134033,796.419739 2570.792480,796.495117 2568.459473,796.495117 
	C2248.126953,796.492004 1927.794312,796.476746 1607.461792,796.605530 
	C1601.246460,796.608032 1595.043579,798.402649 1588.811157,799.169312 
	C1586.288086,799.479675 1583.669067,799.550049 1581.150391,799.251160 
	C1574.591187,798.472656 1568.063965,796.611206 1561.523315,796.608704 
	C1211.524170,796.476318 861.525024,796.486755 511.525909,796.540894 
	C506.563263,796.541626 501.460999,796.680908 496.666687,797.797791 
	C486.080383,800.264038 478.873505,809.105042 477.956055,819.861389 
	C477.730042,822.511414 477.823181,825.191284 477.822937,827.857422 
	C477.817108,893.190613 477.817230,958.523743 477.822968,1023.856934 
	C477.823212,1026.523193 477.735901,1029.201660 477.949280,1031.853638 
	C478.853180,1043.087524 486.362396,1052.016479 497.464111,1054.240234 
	C502.634277,1055.275635 508.049042,1055.406372 513.353210,1055.409180 
	C628.686279,1055.470581 744.019287,1055.456055 859.352356,1055.457275 
	C862.685669,1055.457275 866.021606,1055.387817 869.351807,1055.493652 
	C879.343079,1055.811157 881.777710,1058.083008 881.905823,1068.000732 
	C882.082275,1081.665161 881.961121,1095.333374 881.967468,1111.000000 
z"/>
<path fill="#FFFFFF" opacity="1.000000" stroke="none" 
	d="
M881.967468,1110.000000 
	C881.961121,1095.333374 882.082275,1081.665161 881.905823,1068.000732 
	C881.777710,1058.083008 879.343079,1055.811157 869.351807,1055.493652 
	C866.021606,1055.387817 862.685669,1055.457275 859.352356,1055.457275 
	C744.019287,1055.456055 628.686279,1055.470581 513.353210,1055.409180 
	C508.049042,1055.406372 502.634277,1055.275635 497.464111,1054.240234 
	C486.362396,1052.016479 478.853180,1043.087524 477.949280,1031.853638 
	C477.735901,1029.201660 477.823212,1026.523193 477.822968,1023.856934 
	C477.817230,958.523743 477.817108,893.190613 477.822937,827.857422 
	C477.823181,825.191284 477.730042,822.511414 477.956055,819.861389 
	C478.873505,809.105042 486.080383,800.264038 496.666687,797.797791 
	C501.460999,796.680908 506.563263,796.541626 511.525909,796.540894 
	C861.525024,796.486755 1211.524170,796.476318 1561.523315,796.608704 
	C1568.063965,796.611206 1574.591187,798.472656 1581.150391,799.251160 
	C1583.669067,799.550049 1586.288086,799.479675 1588.811157,799.169312 
	C1595.043579,798.402649 1601.246460,796.608032 1607.461792,796.605530 
	C1927.794312,796.476746 2248.126953,796.492004 2568.459473,796.495117 
	C2570.792480,796.495117 2573.134033,796.419739 2575.457031,796.583313 
	C2590.942383,797.673523 2600.471191,807.324036 2601.473877,822.926086 
	C2601.623535,825.251038 2601.556396,827.591125 2601.556396,829.924255 
	C2601.560059,893.257446 2601.572021,956.590576 2601.528320,1019.923767 
	C2601.525635,1023.905762 2601.492676,1027.964844 2600.763672,1031.854858 
	C2598.601318,1043.393921 2591.018799,1050.789551 2579.354248,1052.526367 
	C2574.116211,1053.306274 2568.731201,1053.311523 2563.412842,1053.312378 
	C2340.413330,1053.347656 2117.413818,1053.342041 1894.414429,1053.349731 
	C1890.415894,1053.349854 1886.391724,1053.186523 1882.424805,1053.568970 
	C1876.242065,1054.164795 1874.291382,1056.189819 1873.646729,1062.346313 
	C1873.335571,1065.317627 1873.465698,1068.339355 1873.465454,1071.338257 
	C1873.458496,1175.338013 1873.456055,1279.337646 1873.462891,1383.337402 
	C1873.463989,1401.419312 1874.111084,1402.084351 1891.850586,1402.085327 
	C2037.516968,1402.092773 2183.183350,1402.088989 2328.849609,1402.095581 
	C2332.848877,1402.095825 2336.871582,1401.909790 2340.842773,1402.265259 
	C2353.541260,1403.401733 2362.985596,1413.069092 2364.018799,1425.744385 
	C2364.126953,1427.070923 2364.115723,1428.409302 2364.115723,1429.742188 
	C2364.120850,1496.741943 2364.143066,1563.741821 2364.061279,1630.741455 
	C2364.056885,1634.351807 2363.865967,1638.232422 2362.572998,1641.519897 
	C2358.745117,1651.255005 2351.657715,1657.324097 2340.862061,1658.085083 
	C2336.548340,1658.389160 2332.199951,1658.233643 2327.867188,1658.233765 
	C2183.867432,1658.239380 2039.867798,1658.237915 1895.868164,1658.238525 
	C1873.463013,1658.238647 1873.459717,1658.240601 1873.459595,1680.134155 
	C1873.458496,1867.800415 1873.465454,2055.466553 1873.421997,2243.132812 
	C1873.420898,2248.109619 1873.420410,2253.191406 1872.481812,2258.042725 
	C1870.117676,2270.260986 1861.045044,2277.779785 1848.652710,2278.211670 
	C1842.326660,2278.432373 1835.987427,2278.284668 1829.654175,2278.284912 
	C1756.654419,2278.287598 1683.654541,2278.286621 1610.654785,2278.285156 
	C1607.321411,2278.285156 1603.962524,2278.002441 1600.659424,2278.314941 
	C1588.774658,2279.439209 1575.554077,2270.031738 1574.444824,2253.709961 
	C1574.151489,2249.394775 1574.315918,2245.046875 1574.315796,2240.713867 
	C1574.311646,1851.048096 1574.311768,1461.382324 1574.311768,1071.716553 
	C1574.311768,1066.804810 1574.311768,1061.893066 1574.311768,1056.141724 
	C1569.538330,1055.865723 1565.987427,1055.481934 1562.436401,1055.480957 
	C1440.770020,1055.450684 1319.103760,1055.456665 1197.437378,1055.457520 
	C1196.770752,1055.457520 1196.103882,1055.453735 1195.437378,1055.461182 
	C1182.549927,1055.605469 1180.400269,1057.635376 1180.379883,1070.712280 
	C1180.297485,1123.712036 1180.291748,1176.711914 1180.290894,1229.711670 
	C1180.285034,1567.044189 1180.288086,1904.376709 1180.285645,2241.709229 
	C1180.285645,2246.042480 1180.428589,2250.384766 1180.200928,2254.707031 
	C1179.496704,2268.073975 1169.871704,2277.533936 1156.407715,2278.230225 
	C1154.412476,2278.333496 1152.408569,2278.281494 1150.408691,2278.281494 
	C1071.075562,2278.283447 991.742371,2278.283691 912.409241,2278.281738 
	C910.409302,2278.281494 908.406189,2278.325928 906.410034,2278.232422 
	C893.046997,2277.606445 883.235962,2268.322021 882.161194,2254.979004 
	C881.760803,2250.008545 881.973267,2244.985352 881.973206,2239.986328 
	C881.967041,1863.657593 881.967468,1487.328735 881.967468,1110.000000 
z"/>
</svg>